# xmcd
#
# Track frame offsets: 
#        150
#        18175
#        36449
#        54888
#        90087
#        117213
#        140532
#        167698
#        192070
#        213375
#
# Disc length: 3296 seconds
#
# Revision: 0
# Processed by: cddbd v1.5.2PL0 Copyright (c) Steve Scherf et al.
# Submitted via: ExactAudioCopy v0.95b3
#
DISCID=770cde0a
DTITLE=Robert Plant  - Nine lives - Pictures At Eleven [remastered wit
DTITLE=h bonus tracks]
DYEAR=1900
DGENRE=
TTITLE0=Burning Down One Side
TTITLE1=Moonlight In Samosa
TTITLE2=Pledge Pin
TTITLE3=Slow Dancer
TTITLE4=Worse Than Detroit
TTITLE5=Fat Lip
TTITLE6=Like I've Never Been Gone
TTITLE7=Mystery Title
TTITLE8=Far Post
TTITLE9=Like I've Never Been Gone - (Live)
EXTD=
EXTT0=
EXTT1=
EXTT2=
EXTT3=
EXTT4=
EXTT5=
EXTT6=
EXTT7=
EXTT8=
EXTT9=
PLAYORDER=
